HIERARCHY
ROOT Hips
{
	OFFSET 0.000000 97.167313 0.000000
	CHANNELS 6 Xposition Yposition Zposition Xrotation Yrotation Zrotation
	JOINT Spine
	{
		OFFSET 0.000000 13.784798 0.064400
		CHANNELS 3 Xrotation Yrotation Zrotation
		JOINT Spine1
		{
			OFFSET 0.000000 12.037903 0.404700
			CHANNELS 3 Xrotation Yrotation Zrotation
			JOINT Spine2
			{
				OFFSET 0.000000 17.795601 0.420200
				CHANNELS 3 Xrotation Yrotation Zrotation
				JOINT Neck
				{
					OFFSET 0.000000 39.131302 11.954600
					CHANNELS 3 Xrotation Yrotation Zrotation
					JOINT Head
					{
						OFFSET 0.000000 14.456192 15.627699
						CHANNELS 3 Xrotation Yrotation Zrotation
						JOINT HeadTop_End
						{
							OFFSET 0.000000 15.703506 7.603401
							CHANNELS 3 Xrotation Yrotation Zrotation
							End Site
							{
								OFFSET 0.000000 17.447403 0.000000
							}
						}
					}
				}
				JOINT LeftShoulder
				{
					OFFSET 17.399500 24.608795 1.168800
					CHANNELS 3 Xrotation Yrotation Zrotation
					JOINT LeftArm
					{
						OFFSET 18.980635 5.765305 1.818600
						CHANNELS 3 Xrotation Yrotation Zrotation
						JOINT LeftForeArm
						{
							OFFSET 49.290169 0.000000 0.000000
							CHANNELS 3 Xrotation Yrotation Zrotation
							JOINT LeftHand
							{
								OFFSET 31.562012 0.000000 0.000000
								CHANNELS 3 Xrotation Yrotation Zrotation
								JOINT LeftHandThumb1
								{
									OFFSET 6.133995 -4.388519 7.076070
									CHANNELS 3 Xrotation Yrotation Zrotation
									JOINT LeftHandThumb2
									{
										OFFSET 6.037666 -3.485840 3.485847
										CHANNELS 3 Xrotation Yrotation Zrotation
										JOINT LeftHandThumb3
										{
											OFFSET 6.496506 -3.750763 3.750761
											CHANNELS 3 Xrotation Yrotation Zrotation
											JOINT LeftHandThumb4
											{
												OFFSET 5.616882 -3.242905 3.242910
												CHANNELS 3 Xrotation Yrotation Zrotation
												End Site
												{
													OFFSET -1.254608 7.132141 0.375429
												}
											}
										}
									}
								}
								JOINT LeftHandPinky1
								{
									OFFSET 18.920792 -0.453171 -11.426712
									CHANNELS 3 Xrotation Yrotation Zrotation
									JOINT LeftHandPinky2
									{
										OFFSET 4.919586 0.000000 0.000000
										CHANNELS 3 Xrotation Yrotation Zrotation
										JOINT LeftHandPinky3
										{
											OFFSET 5.233047 0.000000 0.000000
											CHANNELS 3 Xrotation Yrotation Zrotation
											JOINT LeftHandPinky4
											{
												OFFSET 5.571716 0.000000 0.000000
												CHANNELS 3 Xrotation Yrotation Zrotation
												End Site
												{
													OFFSET -3.459808 4.342407 -0.466164
												}
											}
										}
									}
								}
								JOINT LeftHandRing1
								{
									OFFSET 22.726120 -0.094986 -6.500475
									CHANNELS 3 Xrotation Yrotation Zrotation
									JOINT LeftHandRing2
									{
										OFFSET 6.408615 0.000000 0.000000
										CHANNELS 3 Xrotation Yrotation Zrotation
										JOINT LeftHandRing3
										{
											OFFSET 6.150223 0.000000 0.000000
											CHANNELS 3 Xrotation Yrotation Zrotation
											JOINT LeftHandRing4
											{
												OFFSET 6.145386 0.000000 0.000000
												CHANNELS 3 Xrotation Yrotation Zrotation
												End Site
												{
													OFFSET -3.671402 4.923981 -0.202372
												}
											}
										}
									}
								}
								JOINT LeftHandMiddle1
								{
									OFFSET 23.373947 0.000000 0.000001
									CHANNELS 3 Xrotation Yrotation Zrotation
									JOINT LeftHandMiddle2
									{
										OFFSET 6.996567 0.000000 0.000000
										CHANNELS 3 Xrotation Yrotation Zrotation
										JOINT LeftHandMiddle3
										{
											OFFSET 7.015945 0.000000 0.000000
											CHANNELS 3 Xrotation Yrotation Zrotation
											JOINT LeftHandMiddle4
											{
												OFFSET 7.721573 0.000000 0.000000
												CHANNELS 3 Xrotation Yrotation Zrotation
												End Site
												{
													OFFSET -4.651108 6.158463 0.251582
												}
											}
										}
									}
								}
								JOINT LeftHandIndex1
								{
									OFFSET 21.310577 -0.490082 6.209344
									CHANNELS 3 Xrotation Yrotation Zrotation
									JOINT LeftHandIndex2
									{
										OFFSET 7.536453 0.000000 0.000000
										CHANNELS 3 Xrotation Yrotation Zrotation
										JOINT LeftHandIndex3
										{
											OFFSET 7.512344 0.000000 0.000000
											CHANNELS 3 Xrotation Yrotation Zrotation
											JOINT LeftHandIndex4
											{
												OFFSET 10.212402 0.000000 0.000001
												CHANNELS 3 Xrotation Yrotation Zrotation
												End Site
												{
													OFFSET -5.180801 8.690506 1.388433
												}
											}
										}
									}
								}
							}
						}
					}
				}
				JOINT RightShoulder
				{
					OFFSET -17.399500 24.608795 1.168800
					CHANNELS 3 Xrotation Yrotation Zrotation
					JOINT RightArm
					{
						OFFSET -18.980635 5.765305 1.818600
						CHANNELS 3 Xrotation Yrotation Zrotation
						JOINT RightForeArm
						{
							OFFSET -49.290169 0.000000 0.000000
							CHANNELS 3 Xrotation Yrotation Zrotation
							JOINT RightHand
							{
								OFFSET -31.562012 0.000000 0.000000
								CHANNELS 3 Xrotation Yrotation Zrotation
								JOINT RightHandThumb1
								{
									OFFSET -6.133995 -4.388519 7.076070
									CHANNELS 3 Xrotation Yrotation Zrotation
									JOINT RightHandThumb2
									{
										OFFSET -6.037666 -3.485840 3.485847
										CHANNELS 3 Xrotation Yrotation Zrotation
										JOINT RightHandThumb3
										{
											OFFSET -6.496506 -3.750763 3.750761
											CHANNELS 3 Xrotation Yrotation Zrotation
											JOINT RightHandThumb4
											{
												OFFSET -5.616882 -3.242905 3.242910
												CHANNELS 3 Xrotation Yrotation Zrotation
												End Site
												{
													OFFSET 1.254608 7.132141 0.375429
												}
											}
										}
									}
								}
								JOINT RightHandIndex1
								{
									OFFSET -21.310577 -0.490082 6.209344
									CHANNELS 3 Xrotation Yrotation Zrotation
									JOINT RightHandIndex2
									{
										OFFSET -7.536453 0.000000 0.000000
										CHANNELS 3 Xrotation Yrotation Zrotation
										JOINT RightHandIndex3
										{
											OFFSET -7.512344 0.000000 0.000000
											CHANNELS 3 Xrotation Yrotation Zrotation
											JOINT RightHandIndex4
											{
												OFFSET -10.212402 0.000000 0.000001
												CHANNELS 3 Xrotation Yrotation Zrotation
												End Site
												{
													OFFSET 5.180801 8.690506 1.388433
												}
											}
										}
									}
								}
								JOINT RightHandMiddle1
								{
									OFFSET -23.373947 0.000000 0.000001
									CHANNELS 3 Xrotation Yrotation Zrotation
									JOINT RightHandMiddle2
									{
										OFFSET -6.996567 0.000000 0.000000
										CHANNELS 3 Xrotation Yrotation Zrotation
										JOINT RightHandMiddle3
										{
											OFFSET -7.015945 0.000000 0.000000
											CHANNELS 3 Xrotation Yrotation Zrotation
											JOINT RightHandMiddle4
											{
												OFFSET -7.721573 0.000000 0.000000
												CHANNELS 3 Xrotation Yrotation Zrotation
												End Site
												{
													OFFSET 4.651108 6.158463 0.251582
												}
											}
										}
									}
								}
								JOINT RightHandRing1
								{
									OFFSET -22.726120 -0.094986 -6.500475
									CHANNELS 3 Xrotation Yrotation Zrotation
									JOINT RightHandRing2
									{
										OFFSET -6.408615 0.000000 0.000000
										CHANNELS 3 Xrotation Yrotation Zrotation
										JOINT RightHandRing3
										{
											OFFSET -6.150223 0.000000 0.000000
											CHANNELS 3 Xrotation Yrotation Zrotation
											JOINT RightHandRing4
											{
												OFFSET -6.145386 0.000000 0.000000
												CHANNELS 3 Xrotation Yrotation Zrotation
												End Site
												{
													OFFSET 3.671402 4.923981 -0.202372
												}
											}
										}
									}
								}
								JOINT RightHandPinky1
								{
									OFFSET -18.920792 -0.453171 -11.426712
									CHANNELS 3 Xrotation Yrotation Zrotation
									JOINT RightHandPinky2
									{
										OFFSET -4.919586 0.000000 0.000000
										CHANNELS 3 Xrotation Yrotation Zrotation
										JOINT RightHandPinky3
										{
											OFFSET -5.233047 0.000000 0.000000
											CHANNELS 3 Xrotation Yrotation Zrotation
											JOINT RightHandPinky4
											{
												OFFSET -5.571716 0.000000 0.000000
												CHANNELS 3 Xrotation Yrotation Zrotation
												End Site
												{
													OFFSET 3.459808 4.342407 -0.466164
												}
											}
										}
									}
								}
							}
						}
					}
				}
			}
		}
	}
	JOINT LeftUpLeg
	{
		OFFSET 19.899099 -7.885101 -3.429500
		CHANNELS 3 Xrotation Yrotation Zrotation
		JOINT LeftLeg
		{
			OFFSET 1.745560 -36.997807 10.304700
			CHANNELS 3 Xrotation Yrotation Zrotation
			JOINT LeftFoot
			{
				OFFSET -1.745558 -29.803308 -13.615400
				CHANNELS 3 Xrotation Yrotation Zrotation
				JOINT LeftToeBase
				{
					OFFSET 1.181900 -18.539904 15.226099
					CHANNELS 3 Xrotation Yrotation Zrotation
					JOINT LeftToe_End
					{
						OFFSET -0.863701 1.402801 16.534700
						CHANNELS 3 Xrotation Yrotation Zrotation
						End Site
						{
							OFFSET 0.000000 16.616566 0.000000
						}
					}
				}
			}
		}
	}
	JOINT RightUpLeg
	{
		OFFSET -19.899099 -7.885101 -3.429500
		CHANNELS 3 Xrotation Yrotation Zrotation
		JOINT RightLeg
		{
			OFFSET -1.745560 -36.997807 10.304700
			CHANNELS 3 Xrotation Yrotation Zrotation
			JOINT RightFoot
			{
				OFFSET 1.745558 -29.803308 -13.615400
				CHANNELS 3 Xrotation Yrotation Zrotation
				JOINT RightToeBase
				{
					OFFSET -1.181900 -18.539904 15.226099
					CHANNELS 3 Xrotation Yrotation Zrotation
					JOINT RightToe_End
					{
						OFFSET 0.863701 1.402801 16.534700
						CHANNELS 3 Xrotation Yrotation Zrotation
						End Site
						{
							OFFSET 0.000000 16.616566 0.000000
						}
					}
				}
			}
		}
	}
}
MOTION
Frames: 4
Frame Time: 0.033333
2.345448 81.373863 0.550357 6.691101 -1.690226 1.271237 4.471680 1.416951 0.086590 9.368884 -0.151960 -0.917166 9.368728 -0.189179 -0.908639 -0.000001 -0.000000 0.000000 -19.249739 0.016959 -0.160062 0.000001 0.000000 0.000000 0.903301 7.263736 -15.354052 12.177414 -9.335760 -55.591384 0.000005 -52.416309 -0.000030 -7.977029 -16.257334 0.210353 -1.404921 -0.185152 6.158247 18.995367 22.734432 -2.907351 2.086972 -3.408009 21.577421 -0.000000 0.000004 0.000001 7.833063 8.397363 -84.923799 7.156557 5.704043 -102.913978 0.000004 0.000001 -0.000006 -0.000001 0.000002 -0.000004 7.833521 8.392285 -84.923861 7.156554 5.704053 -102.913937 0.000001 -0.000009 0.000010 0.000003 0.000001 0.000003 7.833523 8.392285 -84.923861 7.156544 5.704063 -102.913950 -0.000002 0.000003 -0.000012 0.000002 -0.000002 0.000004 3.691959 7.785140 -62.796063 7.156773 5.704003 -102.916300 -0.000000 0.000001 -0.000012 0.000000 0.000005 -0.000001 1.253062 -4.822505 15.195718 -10.036588 15.825704 59.312564 0.000063 59.827908 -0.000057 -5.966980 1.927006 -0.246504 -3.140977 4.773341 -4.775578 20.798727 -32.604898 1.659153 -5.475760 -26.009710 -4.316451 0.000000 0.000001 0.000004 3.840467 -7.082915 62.123070 5.695466 -4.540218 102.895598 0.842935 -2.674195 34.985171 -0.000002 -0.000003 -0.000002 7.864972 -7.277899 84.210919 5.694786 -4.540354 102.887053 0.159197 -1.208499 15.008291 -0.000001 0.000000 -0.000008 7.864970 -7.277904 84.210919 5.694790 -4.540350 102.887040 0.019522 -0.426323 5.240816 -0.000001 0.000004 -0.000005 7.864966 -7.277872 84.210912 5.694785 -4.540358 102.887040 0.000876 0.090092 -1.106015 -0.000000 -0.000005 0.000003 -37.287406 -8.580740 4.714825 70.112534 -3.865788 -10.213385 16.758684 1.052706 -7.144718 -20.130929 -2.382214 4.492448 -0.000003 0.000000 0.000000 -7.756750 -3.710416 1.734435 46.055279 0.739678 0.765601 -31.804738 -1.338462 -3.969206 -13.427588 -0.002811 0.239231 -0.000000 -0.000000 -0.000000 
2.712544 79.105621 12.014424 6.112195 -7.170100 1.161480 11.093372 3.640569 -0.908374 5.732979 0.553244 -0.549340 5.736323 0.519710 -0.558428 0.042011 -0.039586 0.052819 -18.142640 -0.338449 -0.160791 -0.000000 0.000000 0.000000 0.896799 8.154914 -15.198277 18.646106 -7.990648 -52.323200 0.000002 -56.711457 -0.000024 -3.725158 -15.039860 3.768345 0.778702 -2.125156 7.102047 16.950725 24.977790 -3.536198 0.119569 -4.882759 18.615387 0.000001 0.000002 -0.000006 6.027732 8.496035 -72.786437 5.470495 5.838710 -86.264210 0.025646 0.548170 -5.357142 0.000001 0.000002 0.000001 6.218698 8.538425 -73.271134 5.539851 5.842797 -86.945549 0.037125 0.659196 -6.446499 -0.000001 0.000002 0.000003 5.936969 8.495585 -71.931994 5.471577 5.838787 -86.274756 0.029967 0.592458 -5.791457 0.000001 -0.000002 0.000004 2.701446 7.255035 -52.803899 5.285891 5.823799 -84.447455 0.011680 0.370206 -3.614959 0.000001 0.000001 0.000002 0.866556 -1.141627 14.253980 -3.753378 17.580801 57.147120 -0.000023 71.623904 0.000030 3.509021 8.773347 -7.522501 -3.140822 4.773447 -4.775656 22.116163 -34.123468 6.024021 -5.475689 -26.009639 -4.316537 -0.000000 -0.000001 -0.000001 4.151837 -7.128522 65.816249 5.726712 -4.532966 103.290915 0.799341 -2.610870 34.039515 0.000002 -0.000003 -0.000001 7.864914 -7.277897 84.210707 5.694762 -4.540370 102.886643 0.176317 -1.270602 15.799436 0.000003 -0.000001 -0.000001 7.864899 -7.277888 84.210755 5.488383 -4.582528 100.292298 0.101128 -0.966255 11.949130 0.000002 0.000002 -0.000003 7.741131 -7.451850 83.135888 5.008653 -4.643913 94.333095 0.143134 -1.146878 14.226467 0.000000 0.000002 0.000001 -52.037753 -2.466415 8.014222 73.674081 -2.062875 -6.493980 13.973381 0.009419 -4.776570 -18.563035 -1.255397 3.157805 0.000001 0.000000 -0.000000 2.724642 -2.760603 -0.813096 43.487248 6.015485 1.332566 -34.346914 -0.574310 -4.845499 -22.064971 -0.000001 0.000001 -0.000000 -0.000000 0.000000 
2.316262 79.743240 23.702309 5.276788 -10.208309 2.192552 14.920659 5.013909 -2.562346 3.242609 1.114769 -0.383205 3.245596 1.085532 -0.405994 0.077044 -0.041925 0.091852 -16.942134 -0.524985 0.047977 -0.000000 -0.000000 -0.000000 0.816732 8.369347 -14.624468 24.363884 -6.016813 -49.825489 0.000016 -61.324450 -0.000018 -0.119993 -12.508440 5.994552 3.158416 -4.201828 8.260824 14.672110 27.427586 -4.085249 -1.975189 -6.071242 15.301494 0.000001 0.000001 -0.000001 4.168329 8.087564 -59.834465 3.710076 5.446547 -68.502187 0.111132 1.136827 -11.165583 0.000002 0.000001 -0.000000 4.530140 8.265459 -60.829904 3.843511 5.496990 -69.901344 0.160697 1.364106 -13.436659 -0.000000 0.000001 0.000002 3.993396 8.031849 -58.070186 3.712159 5.447359 -68.523996 0.129808 1.227669 -12.071015 -0.000001 0.000002 0.000004 1.772818 6.494598 -42.117026 3.366023 5.298797 -64.829041 0.050688 0.769790 -7.534012 -0.000000 -0.000000 0.000001 0.680961 1.357755 13.679755 2.093387 18.668939 54.934283 0.000313 82.508453 -0.000301 12.654681 10.858006 -13.520552 -3.134442 4.777137 -4.778822 23.484741 -35.403046 10.669789 -5.473268 -26.004227 -4.320528 0.000002 -0.000000 -0.000003 4.490011 -7.155665 69.782786 5.772966 -4.521831 103.876440 0.753945 -2.542440 33.029825 -0.000000 -0.000001 0.000001 7.861957 -7.278493 84.196582 5.692969 -4.540761 102.864356 0.192909 -1.327856 16.531523 -0.000002 0.000002 -0.000001 7.861848 -7.278314 84.199014 5.278772 -4.615572 97.678276 0.251700 -1.511793 18.903783 0.000004 -0.000001 -0.000003 7.623168 -7.628840 82.097556 4.289069 -4.642629 85.461513 0.630380 -2.341632 30.130843 -0.000003 -0.000000 0.000006 -58.442179 3.143007 6.628804 64.143092 -0.644761 -3.311330 5.485893 -0.406269 6.740385 0.773587 -0.000001 0.000003 -0.000001 0.000000 -0.000000 13.012093 -3.662490 -4.414636 34.950840 8.836680 0.899492 -27.579440 -1.078730 -3.493607 -33.893844 0.000005 0.000000 0.000000 -0.000002 -0.000000 
3.060970 81.783707 35.681759 4.171939 -10.382094 3.631750 15.529048 5.221209 -4.060418 2.139181 1.368736 -0.398495 2.139242 1.344661 -0.428157 0.107367 0.001627 0.113880 -15.631322 -0.487179 0.486692 0.000000 -0.000000 -0.000000 0.710384 7.940695 -13.876945 28.113047 -3.657163 -48.865827 0.000001 -65.179232 -0.000038 2.679643 -9.780295 6.665517 5.516238 -6.200544 9.533997 12.357913 29.839983 -4.478493 -3.959522 -6.825649 11.977827 0.000002 -0.000002 -0.000003 2.554038 7.205865 -47.201993 2.184572 4.562913 -51.148841 0.252452 1.702852 -16.864210 0.000001 0.000000 -0.000002 3.021390 7.589553 -48.683529 2.354340 4.694163 -53.252506 0.364420 2.035786 -20.295870 0.000001 -0.000001 0.000005 2.335098 7.046614 -44.555243 2.187176 4.565007 -51.181555 0.294703 1.836372 -18.232270 -0.000000 -0.000001 0.000006 1.032023 5.584539 -31.672021 1.776615 4.202807 -45.814249 0.115388 1.158177 -11.378182 -0.000001 0.000003 0.000002 0.624687 2.357680 13.805732 7.114439 19.214668 52.666417 0.002315 91.214192 -0.002248 19.115859 10.173213 -15.600634 -3.135211 4.776649 -4.778452 24.677825 -36.342180 15.241116 -5.473580 -26.004689 -4.320074 -0.000001 -0.000002 -0.000001 4.822698 -7.158888 73.698759 5.816477 -4.510878 104.429610 0.710236 -2.474004 32.031333 -0.000003 0.000001 -0.000004 7.862269 -7.278449 84.197928 5.693155 -4.540725 102.866590 0.210410 -1.385430 17.270693 -0.000002 0.000003 -0.000001 7.862182 -7.278292 84.200106 5.068243 -4.639008 95.069540 0.465492 -2.031336 25.810638 -0.000001 0.000001 -0.000003 7.498021 -7.802049 81.052905 3.583041 -4.531864 76.650890 1.413437 -3.343586 45.821393 0.000006 -0.000002 0.000002 -57.176101 2.640677 6.317403 43.405292 -5.307611 -1.123207 5.464788 -0.406580 -2.227630 -0.707383 -0.000003 0.000001 0.000000 -0.000001 0.000000 15.837738 -5.821985 -7.544128 28.184649 10.078879 -1.051939 3.861681 -3.386171 1.679080 -57.278462 -0.303701 1.000048 0.000001 0.000000 0.000000 
